{
  "accessors": [
    {
      "bufferView": 2,
      "componentType": 5126,
      "count": 13472,
      "max": [
        0.049493931233882904,
        0.04975350946187973,
        0.058874018490314484
      ],
      "min": [
        -0.049493931233882904,
        -0.04948939010500908,
        -0.13378947973251343
      ],
      "type": "VEC3"
    },
    {
      "bufferView": 2,
      "byteOffset": 161664,
      "componentType": 5126,
      "count": 13472,
      "max": [
        1.0,
        0.9999977350234985,
        1.0
      ],
      "min": [
        -1.0,
        -0.9998249411582947,
        -1.0
      ],
      "type": "VEC3"
    },
    {
      "bufferView": 1,
      "componentType": 5126,
      "count": 13472,
      "max": [
        0.9986605644226074,
        1.0
      ],
      "min": [
        1.7175616484621514e-09,
        -7.941914681453e-09
      ],
      "type": "VEC2"
    },
    {
      "bufferView": 1,
      "byteOffset": 107776,
      "componentType": 5126,
      "count": 13472,
      "max": [
        0.9986605644226074,
        1.0
      ],
      "min": [
        1.7175616484621514e-09,
        -7.941914681453e-09
      ],
      "type": "VEC2"
    },
    {
      "bufferView": 0,
      "componentType": 5125,
      "count": 64068,
      "type": "SCALAR"
    },
    {
      "bufferView": 2,
      "byteOffset": 323328,
      "componentType": 5126,
      "count": 15519,
      "max": [
        0.09883129596710205,
        0.04916045069694519,
        0.20743581652641296
      ],
      "min": [
        -0.04916044697165489,
        -0.04916045069694519,
        -0.03788202255964279
      ],
      "type": "VEC3"
    },
    {
      "bufferView": 2,
      "byteOffset": 509556,
      "componentType": 5126,
      "count": 15519,
      "max": [
        1.0,
        1.0,
        1.0
      ],
      "min": [
        -1.0,
        -1.0,
        -1.0
      ],
      "type": "VEC3"
    },
    {
      "bufferView": 1,
      "byteOffset": 215552,
      "componentType": 5126,
      "count": 15519,
      "max": [
        0.999940037727356,
        0.9999403357505798
      ],
      "min": [
        0.00037169267307035625,
        0.0005769776762463152
      ],
      "type": "VEC2"
    },
    {
      "bufferView": 1,
      "byteOffset": 339704,
      "componentType": 5126,
      "count": 15519,
      "max": [
        0.999940037727356,
        0.9999403357505798
      ],
      "min": [
        0.00037169267307035625,
        0.0005769776762463152
      ],
      "type": "VEC2"
    },
    {
      "bufferView": 0,
      "byteOffset": 256272,
      "componentType": 5125,
      "count": 79584,
      "type": "SCALAR"
    }
  ],
  "asset": {
    "extras": {
      "author": "Jhon Maycon_22 (https://sketchfab.com/JHON_22)",
      "license": "CC-BY-4.0 (http://creativecommons.org/licenses/by/4.0/)",
      "source": "https://sketchfab.com/3d-models/stanley-tumbler-travel-cup-40-oz-735b3bf2277a4c11b2e09272f158cb77",
      "title": "Stanley Tumbler Travel Cup 40 oz"
    },
    "generator": "Sketchfab-15.58.0",
    "version": "2.0"
  },
  "bufferViews": [
    {
      "buffer": 0,
      "byteLength": 574608,
      "name": "floatBufferViews",
      "target": 34963
    },
    {
      "buffer": 0,
      "byteLength": 463856,
      "byteOffset": 574608,
      "byteStride": 8,
      "name": "floatBufferViews",
      "target": 34962
    },
    {
      "buffer": 0,
      "byteLength": 695784,
      "byteOffset": 1038464,
      "byteStride": 12,
      "name": "floatBufferViews",
      "target": 34962
    }
  ],
  "buffers": [
    {
      "byteLength": 1734248,
      "uri": "scene.bin"
    }
  ],
  "extensionsUsed": [
    "KHR_materials_transmission"
  ],
  "images": [
    {
      "uri": "textures/lid_Baked_baseColor.png"
    },
    {
      "uri": "textures/lid_Baked_metallicRoughness.png"
    },
    {
      "uri": "textures/lid_Baked_transmission.png"
    },
    {
      "uri": "textures/cup_Baked_baseColor.png"
    },
    {
      "uri": "textures/cup_Baked_metallicRoughness.png"
    },
    {
      "uri": "textures/cup_Baked_transmission.png"
    }
  ],
  "materials": [
    {
      "alphaMode": "BLEND",
      "doubleSided": true,
      "extensions": {
        "KHR_materials_transmission": {
          "transmissionFactor": 1.0,
          "transmissionTexture": {
            "index": 2
          }
        }
      },
      "name": "lid_Baked",
      "pbrMetallicRoughness": {
        "baseColorTexture": {
          "index": 0
        },
        "metallicRoughnessTexture": {
          "index": 1
        }
      }
    },
    {
      "alphaMode": "BLEND",
      "doubleSided": true,
      "extensions": {
        "KHR_materials_transmission": {
          "transmissionFactor": 1.0,
          "transmissionTexture": {
            "index": 5
          }
        }
      },
      "name": "cup_Baked",
      "pbrMetallicRoughness": {
        "baseColorTexture": {
          "index": 3
        },
        "metallicRoughnessTexture": {
          "index": 4
        }
      }
    }
  ],
  "meshes": [
    {
      "name": "lid_Baked_lid_Baked_0",
      "primitives": [
        {
          "attributes": {
            "NORMAL": 1,
            "POSITION": 0,
            "TEXCOORD_0": 2,
            "TEXCOORD_1": 3
          },
          "indices": 4,
          "material": 0,
          "mode": 4
        }
      ]
    },
    {
      "name": "cup_Baked_cup_Baked_0",
      "primitives": [
        {
          "attributes": {
            "NORMAL": 6,
            "POSITION": 5,
            "TEXCOORD_0": 7,
            "TEXCOORD_1": 8
          },
          "indices": 9,
          "material": 1,
          "mode": 4
        }
      ]
    }
  ],
  "nodes": [
    {
      "children": [
        1
      ],
      "matrix": [
        1.0,
        0.0,
        0.0,
        0.0,
        0.0,
        2.220446049250313e-16,
        -1.0,
        0.0,
        0.0,
        1.0,
        2.220446049250313e-16,
        0.0,
        0.0,
        0.0,
        0.0,
        1.0
      ],
      "name": "Sketchfab_model"
    },
    {
      "children": [
        2
      ],
      "matrix": [
        0.009999999776482582,
        0.0,
        0.0,
        0.0,
        0.0,
        0.0,
        0.009999999776482582,
        0.0,
        0.0,
        -0.009999999776482582,
        0.0,
        0.0,
        0.0,
        0.0,
        0.0,
        1.0
      ],
      "name": "stanley cup.fbx"
    },
    {
      "children": [
        3,
        5
      ],
      "name": "RootNode"
    },
    {
      "children": [
        4
      ],
      "matrix": [
        100.0,
        0.0,
        0.0,
        0.0,
        0.0,
        -1.629206793918314e-05,
        -99.99999999999868,
        0.0,
        0.0,
        99.99999999999868,
        -1.629206793918314e-05,
        0.0,
        70.84642028808594,
        25.36530876159668,
        7.683729563723318e-08,
        1.0
      ],
      "name": "lid_Baked"
    },
    {
      "mesh": 0,
      "name": "lid_Baked_lid_Baked_0"
    },
    {
      "children": [
        6
      ],
      "matrix": [
        100.0,
        0.0,
        0.0,
        0.0,
        0.0,
        -1.629206793918314e-05,
        -99.99999999999868,
        0.0,
        0.0,
        99.99999999999868,
        -1.629206793918314e-05,
        0.0,
        70.84642028808594,
        3.788196325302124,
        7.683729563723318e-08,
        1.0
      ],
      "name": "cup_Baked"
    },
    {
      "mesh": 1,
      "name": "cup_Baked_cup_Baked_0"
    }
  ],
  "samplers": [
    {
      "magFilter": 9729,
      "minFilter": 9987,
      "wrapS": 10497,
      "wrapT": 10497
    }
  ],
  "scene": 0,
  "scenes": [
    {
      "name": "Sketchfab_Scene",
      "nodes": [
        0
      ]
    }
  ],
  "textures": [
    {
      "sampler": 0,
      "source": 0
    },
    {
      "sampler": 0,
      "source": 1
    },
    {
      "sampler": 0,
      "source": 2
    },
    {
      "sampler": 0,
      "source": 3
    },
    {
      "sampler": 0,
      "source": 4
    },
    {
      "sampler": 0,
      "source": 5
    }
  ]
}
